<svg width="152" height="50" viewBox="0 0 152 50" fill="none" xmlns="http://www.w3.org/2000/svg">
<path fill-rule="evenodd" clip-rule="evenodd" d="M17.4879 10.7864C15.1678 10.7864 12.4144 11.2783 9.40594 14.7662V5.00507C9.40594 2.53922 7.40458 0.533325 4.9443 0.533325C2.48403 0.533325 0.482666 2.53922 0.482666 5.00507V36.8375C0.482666 39.3033 2.48403 41.3092 4.9443 41.3092C7.40458 41.3092 9.40594 39.3033 9.40594 36.8375V24.4827C9.40594 20.9309 11.0886 18.9697 14.1544 18.9697C17.1564 18.9697 18.7371 20.8734 18.7371 24.4827V36.8375C18.7371 39.3033 20.7385 41.3092 23.1988 41.3092C25.659 41.3092 27.6604 39.3033 27.6604 36.8375V21.8891C27.654 14.9387 23.8553 10.7864 17.4879 10.7864ZM43.1109 11.0037C39.4778 11.0037 36.5969 11.4764 33.7733 12.5369C32.3073 13.0863 31.3258 14.5044 31.3258 16.0632C31.3258 18.1457 32.9766 19.7747 35.0863 19.7747C35.5197 19.7747 35.883 19.7108 36.3802 19.5447C38.0947 19.0081 39.9049 18.7526 41.9253 18.7526C46.7184 18.7526 47.7382 21.4037 47.751 23.646C46.0874 23.103 43.9904 22.6047 41.0649 22.6047C33.4419 22.6047 29.0695 26.099 29.0695 32.1998V32.3084C29.0695 37.8214 33.1997 41.5266 39.344 41.5266C42.8049 41.5266 45.5775 40.4725 47.7892 38.3133C48.1653 39.8912 49.6758 41.3157 51.9959 41.3157C54.437 41.3157 56.3492 39.4248 56.3492 37.0101V23.8312C56.3492 19.6853 55.2656 16.4912 53.1177 14.3447C50.8996 12.128 47.5343 11.0037 43.1109 11.0037ZM41.817 35.1192C39.2866 35.1192 37.7187 33.9182 37.7187 31.9826V31.874C37.7187 29.5678 39.6435 28.2519 43.0025 28.2519C44.7234 28.2519 46.438 28.5904 47.8593 29.2037V30.4238C47.8593 33.1836 45.3735 35.1192 41.817 35.1192ZM68.3062 14.8433C70.6135 12.1155 73.4562 10.7867 76.9745 10.7867C83.6861 10.7867 90.4741 16.0442 90.4741 26.0993V26.2079C90.4741 30.8393 89.0528 34.7617 86.3694 37.5597C83.9155 40.1214 80.582 41.5268 76.9745 41.5268C73.5008 41.5268 70.7409 40.3386 68.3508 37.8089V45.4747C68.3508 47.9405 66.3494 49.9464 63.8891 49.9464C61.4289 49.9464 59.4275 47.9405 59.4275 45.4747V15.4757C59.4275 13.0098 61.4289 11.0039 63.8891 11.0039C66.1391 11.0039 68.0002 12.6777 68.3062 14.8433ZM81.5572 26.0993C81.5572 21.7617 78.6826 18.4845 74.8711 18.4845C71.0341 18.4845 68.2424 21.685 68.2424 26.0993V26.2079C68.2424 30.6221 71.0277 33.8226 74.8711 33.8226C78.7464 33.8226 81.5572 30.6221 81.5572 26.2079V26.0993ZM110.08 10.7867C106.561 10.7867 103.719 12.1155 101.411 14.8433C101.105 12.6777 99.2443 11.0039 96.9943 11.0039C94.5341 11.0039 92.5327 13.0098 92.5327 15.4757V45.4747C92.5327 47.9405 94.5341 49.9464 96.9943 49.9464C99.4546 49.9464 101.456 47.9405 101.456 45.4747V37.8089C103.846 40.3386 106.606 41.5268 110.08 41.5268C113.687 41.5268 117.021 40.1214 119.475 37.5597C122.158 34.7617 123.579 30.8393 123.579 26.2079V26.0993C123.579 16.0442 116.791 10.7867 110.08 10.7867ZM107.976 18.4845C111.788 18.4845 114.662 21.7617 114.662 26.0993V26.2079C114.662 30.6221 111.852 33.8226 107.976 33.8226C104.133 33.8226 101.348 30.6221 101.348 26.2079V26.0993C101.348 21.685 104.139 18.4845 107.976 18.4845ZM143.485 14.3768C144.313 12.1664 145.792 11.0038 147.761 11.0038C150.139 11.0038 152.006 12.8244 152 15.137C152 15.8077 151.783 16.7787 151.592 17.2259L141.528 41.45C138.998 47.589 136.359 49.7674 131.445 49.7674C129.711 49.7674 128.379 49.5374 126.849 48.9881C125.797 48.6048 124.026 47.6082 124.026 45.2446C124.026 42.9193 125.855 41.533 127.62 41.533C128.321 41.533 128.742 41.6544 129.08 41.7694C129.775 41.9866 130.157 42.076 130.686 42.076C132.025 42.076 132.586 41.8588 133.261 40.562L133.465 40.0765L123.675 17.3409C123.452 16.7787 123.216 15.9099 123.216 15.303C123.216 12.85 125.109 10.9974 127.62 10.9974C129.692 10.9974 131.094 12.0834 131.897 14.3193L137.793 30.2067L143.485 14.3768Z" fill="#121214"/>
</svg>
