<svg width="58" height="68" viewBox="0 0 58 68" fill="none" xmlns="http://www.w3.org/2000/svg">
<path d="M58 17.256V41.2666C58 50.7964 50.3481 58.5226 40.91 58.5226H39.1814L30.3541 67.4298C30.0084 67.7789 29.5301 68 29 68C28.5102 68 28.0666 67.8196 27.7266 67.5171L27.5768 67.3659L27.571 67.36L18.8186 58.5226H17.0842C7.6519 58.5226 0 50.7964 0 41.2666V17.256C0 7.72622 7.6519 0 17.09 0H40.91C50.3481 0 58 7.72622 58 17.256Z" fill="#FFD666"/>
<path d="M13.5041 33.2623C11.8216 33.2623 10.8626 35.1982 11.8388 36.596C15.6345 42.0409 21.9109 45.5909 29.0028 45.5909C36.0946 45.5909 42.3653 42.035 46.161 36.596C47.1372 35.1982 46.1782 33.2623 44.4957 33.2623H13.5041Z" fill="white"/>
<path d="M23.3582 25.0218H13.2057V19.8518C13.2057 16.9978 15.4797 14.6818 18.2819 14.6818C21.0842 14.6818 23.3582 16.9978 23.3582 19.8518V25.0218Z" fill="white"/>
<path d="M44.8011 25.0218H34.6485V19.8518C34.6485 16.9978 36.9225 14.6818 39.7248 14.6818C42.5271 14.6818 44.8011 16.9978 44.8011 19.8518V25.0218Z" fill="white"/>
</svg>
